<svg xmlns="http://www.w3.org/2000/svg" width="512" height="512"><path style="fill:#fff;stroke:none" d="M0 0v512h512V0H0z"/><path style="fill:#f92791;stroke:none" d="M252 35.425c-14.749 1.866-29.316 1.76-44 5-40.661 8.967-79.719 29.758-108.96 59.59C-1.697 202.781 22.297 380.462 150 449.691c42.881 23.247 91.032 29.971 139 24.154C401.49 460.203 483.5 351.831 475.91 241 469.59 148.704 404.951 68.962 316 43.579c-19.376-5.53-43.836-10.704-64-8.154z"/><path style="fill:#fff;stroke:none" d="M244 111.424c-26.662 3.511-50.896 11.137-73 27.004-14.825 10.643-27.44 24.251-37.308 39.572C81.383 259.212 125.65 371.488 219 396.116c17.933 4.731 36.636 5.883 55 3.598 21.1-2.626 42.213-10.012 60-21.717 41.983-27.627 69.188-76.13 66.961-126.997-3.438-78.489-75.666-150.281-156.961-139.576z"/></svg>