<svg xmlns="http://www.w3.org/2000/svg" width="48" height="48"><linearGradient id="a" x1="20.601" x2="27.399" y1="4.721" y2="43.279" gradientUnits="userSpaceOnUse"><stop offset="0" stop-color="#fede00"/><stop offset="1" stop-color="#ffd000"/></linearGradient><path fill="url(#a)" d="m34.017 41.99-20 .019c-4.4.004-8.003-3.592-8.008-7.992l-.019-20c-.004-4.4 3.592-8.003 7.992-8.008l20-.019c4.4-.004 8.003 3.592 8.008 7.992l.019 20c.005 4.401-3.592 8.004-7.992 8.008z"/><path d="M14.613 20.505a1.123 1.123 0 0 0-1.06.761c-.151.453.004.95.386 1.236l3.676 2.296-.143.382c-.066.179-1.67 4.403-4.703 6.057-.161.088-.264.206-.274.317-.011.112.078.213.155.277.656.549 1.334.939 2.685 1.187l.409.075.001.416c.002.608.195 1.251.375 1.251.893 0 2.751 0 4.608.928 1.03.515 2.472.823 3.271.823s2.241-.308 3.271-.823c1.856-.928 3.715-.928 4.608-.928.181 0 .374-.643.375-1.251l.001-.416.409-.075c1.351-.247 2.029-.637 2.686-1.187.077-.064.166-.165.155-.277-.011-.111-.114-.229-.274-.317-3.032-1.654-4.636-5.878-4.703-6.057l-.143-.382 3.71-2.32c.347-.263.502-.759.351-1.212a1.1 1.1 0 0 0-.556-.641 1.1 1.1 0 0 0-.846-.06l-2.546 1.042V18.1c0-3.636-2.914-6.594-6.496-6.594-3.586 0-6.5 2.958-6.5 6.594v3.508l-2.576-1.053a.971.971 0 0 0-.312-.05z" opacity=".07"/><path fill="none" stroke="#1d1d1b" stroke-width="2" d="M24 37.011c.868 0 2.387-.322 3.494-.875 1.751-.875 3.509-.875 4.384-.875.875 0 .875-1.751.875-1.751 1.391-.254 2.156-.658 2.917-1.295.531-.445.407-1.085-.201-1.416-2.903-1.583-4.474-5.793-4.474-5.793l3.364-2.104a1.607 1.607 0 0 0-1.474-2.811l-1.887.771V18.1c0-3.864-3.132-7.094-6.996-7.094h-.004c-3.864 0-6.996 3.23-6.996 7.094v2.763l-1.887-.771a1.608 1.608 0 0 0-1.474 2.811l3.364 2.104s-1.57 4.209-4.474 5.793c-.608.331-.732.972-.201 1.416.76.637 1.526 1.041 2.917 1.295 0 0 0 1.751.875 1.751s2.633 0 4.384.875c1.107.552 2.626.874 3.494.874" opacity=".05"/><path fill="none" stroke="#000" d="M24 37.011c.868 0 2.387-.322 3.494-.875 1.751-.875 3.509-.875 4.384-.875.875 0 .875-1.751.875-1.751 1.391-.254 2.156-.658 2.917-1.295.531-.445.407-1.085-.201-1.416-2.903-1.583-4.474-5.793-4.474-5.793l3.364-2.104a1.607 1.607 0 0 0-1.474-2.811l-1.887.771V18.1c0-3.864-3.132-7.094-6.996-7.094h-.004c-3.864 0-6.996 3.23-6.996 7.094v2.763l-1.887-.771a1.608 1.608 0 0 0-1.474 2.811l3.364 2.104s-1.57 4.209-4.474 5.793c-.608.331-.732.972-.201 1.416.76.637 1.526 1.041 2.917 1.295 0 0 0 1.751.875 1.751s2.633 0 4.384.875c1.107.552 2.626.874 3.494.874" opacity=".07"/><path fill="#fff" d="M24 37.011c.868 0 2.387-.322 3.494-.875 1.751-.875 3.509-.875 4.384-.875.875 0 .875-1.751.875-1.751 1.391-.254 2.156-.658 2.917-1.295.531-.445.407-1.085-.201-1.416-2.903-1.583-4.474-5.793-4.474-5.793l3.364-2.104a1.607 1.607 0 0 0-1.474-2.811l-1.887.771V18.1c0-3.864-3.132-7.094-6.996-7.094h-.004c-3.864 0-6.996 3.23-6.996 7.094v2.763l-1.887-.771a1.608 1.608 0 0 0-1.474 2.811l3.364 2.104s-1.57 4.209-4.474 5.793c-.608.331-.732.972-.201 1.416.76.637 1.526 1.041 2.917 1.295 0 0 0 1.751.875 1.751s2.633 0 4.384.875c1.107.552 2.626.874 3.494.874"/></svg>
